# xmcd
#
# Track frame offsets:
#	150
#	15384
#	27547
#	42775
#	58754
#	70702
#	92678
#	105481
#	123622
#	139702
#	161777
#	181784
#	201369
#	214945
#	230761
#	246698
#
# Disc length: 3572 seconds
#
# Revision: 0
# Processed by: cddbd v1.5.2PL0 Copyright (c) Steve Scherf et al.
# Submitted via: audiograbber 1.83.01
#
DISCID=e90df210
DTITLE=Country Karaoke Classics # 38 - Country Line Dance
DYEAR=2007
DGENRE=Karaoke Country
TTITLE0=Brooks and Dunn - Boot Scootin' Boogie
TTITLE1=George Straight - The Fireman
TTITLE2=Tracy Byrd - Watermelon Crawl
TTITLE3=Rednex - Cotton Eyed Joe
TTITLE4=The Osbourne Brothers - Rocky Top
TTITLE5=Clarence Carter - Strockin'
TTITLE6=George Jones - White Lightnin'
TTITLE7=The Tractors - Baby Likes To Rock It
TTITLE8=Toby Keith - Who's Your Daddy
TTITLE9=Dwight Yoakham - Fast As You
TTITLE10=Twister Alley - Dance
TTITLE11=Brooks and Dunn - Neon Moon
TTITLE12=Tim McGraw - Somethin' Like That
TTITLE13=Confederate Railroad - Trashy Women
TTITLE14=Bellamy Brothers - Redneck Girl
TTITLE15=Lynyrd Skynyrd - Sweet Home Alabama
EXTD=
EXTT0=
EXTT1=
EXTT2=
EXTT3=
EXTT4=
EXTT5=
EXTT6=
EXTT7=
EXTT8=
EXTT9=
EXTT10=
EXTT11=
EXTT12=
EXTT13=
EXTT14=
EXTT15=
PLAYORDER=
